<?xml version="1.0" encoding="utf-8"?>
<!-- Generator: Adobe Illustrator 26.0.3, SVG Export Plug-In . SVG Version: 6.00 Build 0)  -->
<svg version="1.1" id="_レイヤー_2" xmlns="http://www.w3.org/2000/svg" xmlns:xlink="http://www.w3.org/1999/xlink" x="0px"
	 y="0px" viewBox="0 0 244.6 66.1" style="enable-background:new 0 0 244.6 66.1;" xml:space="preserve">
<style type="text/css">
	.st0{fill:#DC0000;}
</style>
<g id="_layout">
	<g>
		<g>
			<path class="st0" d="M196.4,0h-19.3v1.2h0.8c0.6,0,1.1,0.2,1.5,0.6s0.6,0.9,0.8,1.4s0.2,1.9,0.2,4.1v28.3c0,2.2-0.1,3.5-0.2,4
				c-0.2,0.7-0.4,1.2-0.7,1.5c-0.4,0.4-0.9,0.7-1.6,0.7h-0.8V43h12v-1.2h-0.8c-0.6,0-1.1-0.2-1.5-0.6s-0.6-0.9-0.8-1.4
				c-0.1-0.5-0.2-1.9-0.2-4.1V22.5h0.7c1.2,0,2.3,0.6,3.2,2c0.9,1.3,1.5,4,1.8,8.1h0.6V10.9h-0.6c-0.1,2.3-0.4,4.1-0.9,5.5
				c-0.4,1.4-1,2.3-1.6,2.9s-1.5,0.9-2.5,0.9h-0.7V2.5h2.1c1.8,0,3.1,0.2,3.7,0.5c1.2,0.6,2.2,1.5,2.8,3s1.1,3.5,1.2,6.4h0.7
				L196.4,0L196.4,0z"/>
			<path class="st0" d="M210.1,39.3c-0.1,0-0.3-0.1-0.4-0.2s-0.2-0.4-0.2-0.8c-0.1-0.3-0.1-1.2-0.1-2.5V24.3c0-3.2-0.1-5.2-0.2-6.1
				c-0.3-1.4-0.8-2.7-1.7-3.9s-2.1-1.8-3.6-1.8c-1.2,0-2.4,0.4-3.6,1.1c-1.1,0.7-2,1.8-2.7,3.2c-0.6,1.4-1,2.8-1,4.4
				c0,1.1,0.2,2,0.7,2.8s1.1,1.2,1.8,1.2s1.2-0.4,1.6-1.1s0.6-1.6,0.6-2.6c0-0.9-0.2-1.7-0.6-2.6c-0.3-0.7-0.5-1.2-0.5-1.6
				c0-0.5,0.1-1,0.4-1.3c0.5-0.6,1.1-0.9,1.8-0.9c0.4,0,0.9,0.2,1.2,0.6c0.4,0.4,0.6,0.9,0.7,1.5c0.1,0.6,0.2,2,0.2,4.2v3
				c-3.5,3-5.7,5.4-6.8,7.2c-1,1.8-1.6,3.8-1.6,6.1c0,1.7,0.3,3.1,0.9,4.2s1.3,1.7,2.2,1.7c1.5,0,3.2-1.6,5.2-4.8
				c0.1,1.6,0.4,2.8,0.9,3.6s1.2,1.2,2.1,1.2c0.8,0,1.4-0.3,2.1-1.1c0.6-0.7,1.2-1.8,1.8-3.4l-0.5-0.8
				C210.7,39,210.4,39.3,210.1,39.3L210.1,39.3z M204.7,36.3c-0.7,1.2-1.4,1.8-2,1.8c-0.5,0-0.9-0.3-1.2-0.9
				c-0.4-0.7-0.6-1.6-0.6-2.6c0-1.2,0.2-2.3,0.7-3.5c0.7-1.7,1.7-3.3,3-4.8v10H204.7z"/>
			<path class="st0" d="M229.8,40.7c-0.3-0.5-1.2-2.8-2.7-7l-3.7-10.2l1.7-3.2c1.5-2.7,2.5-4.3,3-4.9s1.1-0.8,1.8-0.9v-1.2h-7.1v1.2
				c0.7,0.2,1.2,0.4,1.4,0.8s0.4,0.9,0.4,1.4s-0.1,1.2-0.3,1.8c-0.2,0.6-0.7,1.6-1.4,3l-3.7,6.8V0h-6.4v1.2c0.7,0.2,1.2,0.5,1.4,1.1
				c0.2,0.5,0.3,1.9,0.3,4.2v30.1c0,2.3-0.1,3.6-0.3,4.1c-0.3,0.7-0.8,1.1-1.4,1.2V43h8.1v-1.1c-0.7-0.2-1.2-0.5-1.4-1.1
				s-0.3-2-0.3-4.2v-5.3l1-1.9l3.1,8.6c0.5,1.3,0.7,2.2,0.7,2.7c0,0.3-0.1,0.6-0.2,0.8s-0.4,0.4-0.8,0.4V43h8.1v-1.1
				C230.6,41.8,230.2,41.4,229.8,40.7L229.8,40.7z"/>
			<path class="st0" d="M242.7,16.2c-1.2-2.5-2.6-3.7-4.2-3.7c-1.9,0-3.6,1.5-5,4.4s-2.1,6.9-2.1,11.8c0,4,0.5,7.4,1.4,10.2
				c1.2,3.4,3,5.1,5.3,5.1c1.4,0,2.6-0.7,3.6-2c1-1.4,2-3.7,2.8-7l-0.6-0.7c-0.6,1.8-1.2,3.1-1.8,3.8s-1.2,1.1-1.8,1.1
				c-1.1,0-2-0.9-2.8-2.6c-1-2.3-1.6-5.4-1.7-9.3h8.6C244.5,22.3,243.8,18.6,242.7,16.2L242.7,16.2z M235.8,25v-1.1
				c0-3.3,0.3-5.9,1-7.7c0.4-1.1,0.9-1.6,1.4-1.6c0.4,0,0.7,0.2,0.9,0.6c0.4,0.7,0.7,1.6,0.9,2.9s0.3,3.6,0.3,7h-4.5V25z"/>
			<path class="st0" d="M54.3,19.2h-4.1c-2.1,0-3.8,1.7-3.8,3.9v16.1c0,2.1,1.7,3.8,3.8,3.8h4.1c2.1,0,3.8-1.7,3.8-3.8v-3h-4.3v2.7
				h-3.3v-6.3H58V23C58.2,20.9,56.5,19.2,54.3,19.2L54.3,19.2z M50.6,28.6v-5.3h3.3v5.3C53.9,28.6,50.6,28.6,50.6,28.6z"/>
			<path class="st0" d="M104.4,19.2h-8V43h4.3V23.3h3.3v4.9h4.3v-5.1C108.3,20.9,106.6,19.2,104.4,19.2L104.4,19.2z"/>
			<path class="st0" d="M135.1,19.2h-8V43h4.3V23.3h3.3V43h4.3V23C139,20.9,137.3,19.2,135.1,19.2z"/>
			<path class="st0" d="M74.6,19.2h-4.1c-2.1,0-3.8,1.7-3.8,3.9v6.2c0,2.1,1.7,3.8,3.8,3.8h3.7v5.8h-3.3v-2.7h-4.3v2.9
				c0,2.1,1.7,3.8,3.8,3.8h4.1c2.1,0,3.8-1.7,3.8-3.8v-6.2c0-2.1-1.7-3.9-3.8-3.9h-3.7v-5.8h3.3v2.7h4.3V23
				C78.4,20.9,76.7,19.2,74.6,19.2z"/>
			<path class="st0" d="M24.4,19.2h-4.1c-2.1,0-3.9,1.6-3.9,3.5V26h4.3v-2.7H24v5.8h-2.2c-3,0-5.4,2.6-5.4,5.2v3.5
				c0,3,2.2,5.2,5.2,5.2h6.6V23C28.2,20.9,26.5,19.2,24.4,19.2L24.4,19.2z M23.9,38.9h-2.2c-0.6,0-1.1-0.5-1.1-1.1v-3.7
				c0-0.6,0.5-1.1,1.1-1.1h2.2V38.9z"/>
			<path class="st0" d="M150.6,19.2h-3.7c-2.1,0-3.9,1.7-3.9,3.9v9c0,2.1,1.7,3.8,3.8,3.8v1.8c-2.1,0-3.8,1.8-3.8,3.8v4.1
				c0,2.1,1.7,3.8,3.9,3.8h4.1c2.1,0,3.9-1.7,3.9-3.8v-4.1c0-2.1-1.7-3.8-3.8-3.8v-1.8c2.1,0,3.8-1.8,3.8-3.8V17.7h-4.3V19.2
				L150.6,19.2z M150.6,45.4h-3.3v-3.7h3.3V45.4z M150.6,32.1h-3.3v-8.8h3.3V32.1z"/>
			<polygon class="st0" points="0,9.4 0,13.5 0,18.4 0,22.5 0,26.5 0,36.7 0,45.3 4.6,40.7 4.6,36.7 4.6,26.5 12.8,26.5 12.8,22.5 
				4.6,22.5 4.6,14 4.6,13.5 12.8,13.5 14.5,13.5 14.5,9.4 12.8,9.4 			"/>
			<path class="st0" d="M119.2,19.2h-4.1c-2.1,0-3.8,1.6-3.8,3.5V26h4.3v-2.7h3.3v5.8h-2.2c-2.9,0-5.3,2.6-5.3,5.2v3.5
				c0,3,2.2,5.2,5.2,5.2h6.6V23C123.1,20.9,121.3,19.2,119.2,19.2L119.2,19.2z M118.8,38.9h-2.2c-0.6,0-1.1-0.5-1.1-1.1v-3.7
				c0-0.6,0.5-1.1,1.1-1.1h2.2V38.9z"/>
			<path class="st0" d="M166.9,19.2h-4.1c-2.1,0-3.9,1.7-3.9,3.9v16.1c0,2.1,1.7,3.8,3.9,3.8h4.1c2.1,0,3.9-1.7,3.9-3.8v-3h-4.3v2.7
				h-3.3v-6.3h7.6V23C170.8,20.9,169.1,19.2,166.9,19.2L166.9,19.2z M163.2,28.6v-5.3h3.3v5.3C166.5,28.6,163.2,28.6,163.2,28.6z"/>
			<polygon class="st0" points="89.4,10.4 85.1,14.7 85.1,19.2 81,19.2 81,23.3 85.1,23.3 85.1,45.1 89.4,40.8 89.4,23.3 93.5,23.3 
				93.5,19.2 89.4,19.2 			"/>
			<polygon class="st0" points="39.5,10.4 35.2,14.7 35.2,19.2 31,19.2 31,23.3 35.2,23.3 35.2,45.1 39.5,40.8 39.5,23.3 43.6,23.3 
				43.6,19.2 39.5,19.2 			"/>
		</g>
	</g>
</g>
</svg>
